<svg width="1216" height="466" viewBox="0 0 1216 466" fill="none" xmlns="http://www.w3.org/2000/svg">
<line y1="38.7266" x2="1216" y2="38.7266" stroke="#1B1A1A"/>
<line x1="39.7266" y1="2.18557e-08" x2="39.7265" y2="465.806" stroke="#1B1A1A"/>
<line x1="118.178" y1="2.01686e-08" x2="118.178" y2="465.806" stroke="#1B1A1A"/>
<line x1="196.629" y1="2.20021e-08" x2="196.629" y2="465.806" stroke="#1B1A1A"/>
<line x1="275.08" y1="2.01686e-08" x2="275.08" y2="465.806" stroke="#1B1A1A"/>
<line x1="353.533" y1="2.01686e-08" x2="353.533" y2="465.806" stroke="#1B1A1A"/>
<line x1="431.984" y1="2.01686e-08" x2="431.984" y2="465.806" stroke="#1B1A1A"/>
<line x1="510.436" x2="510.436" y2="465.806" stroke="#1B1A1A"/>
<line x1="549.662" x2="549.662" y2="465.806" stroke="#1B1A1A"/>
<line x1="588.887" x2="588.887" y2="465.806" stroke="#1B1A1A"/>
<line x1="628.113" x2="628.113" y2="465.806" stroke="#1B1A1A"/>
<line x1="667.338" x2="667.338" y2="465.806" stroke="#1B1A1A"/>
<line x1="706.564" x2="706.564" y2="465.806" stroke="#1B1A1A"/>
<line x1="745.791" x2="745.791" y2="465.806" stroke="#1B1A1A"/>
<line x1="785.016" x2="785.016" y2="465.806" stroke="#1B1A1A"/>
<line x1="824.242" x2="824.242" y2="465.806" stroke="#1B1A1A"/>
<line x1="863.467" x2="863.467" y2="465.806" stroke="#1B1A1A"/>
<line x1="902.693" x2="902.693" y2="465.806" stroke="#1B1A1A"/>
<line x1="941.92" x2="941.92" y2="465.806" stroke="#1B1A1A"/>
<line x1="981.145" x2="981.145" y2="465.806" stroke="#1B1A1A"/>
<line x1="1020.37" x2="1020.37" y2="465.806" stroke="#1B1A1A"/>
<line x1="1059.6" x2="1059.6" y2="465.806" stroke="#1B1A1A"/>
<line x1="1098.82" x2="1098.82" y2="465.806" stroke="#1B1A1A"/>
<line x1="1138.05" x2="1138.05" y2="465.806" stroke="#1B1A1A"/>
<line x1="1177.27" x2="1177.27" y2="465.806" stroke="#1B1A1A"/>
<line y1="116.197" x2="1216" y2="116.197" stroke="#1B1A1A"/>
<line y1="193.668" x2="1216" y2="193.668" stroke="#1B1A1A"/>
<line y1="271.139" x2="1216" y2="271.139" stroke="#1B1A1A"/>
<line y1="349.59" x2="1216" y2="349.59" stroke="#1B1A1A"/>
<rect x="0.5" y="0.5" width="1215" height="464.806" stroke="#1B1A1A"/>
<line y1="76.9707" x2="1216" y2="76.9707" stroke="#1B1A1A"/>
<line x1="78.9512" y1="2.20061e-08" x2="78.9511" y2="465.806" stroke="#1B1A1A"/>
<line x1="157.402" y1="2.20021e-08" x2="157.402" y2="465.806" stroke="#1B1A1A"/>
<line x1="235.855" y1="2.20021e-08" x2="235.855" y2="465.806" stroke="#1B1A1A"/>
<line x1="314.307" y1="2.20021e-08" x2="314.307" y2="465.806" stroke="#1B1A1A"/>
<line x1="392.758" y1="2.20021e-08" x2="392.758" y2="465.806" stroke="#1B1A1A"/>
<line x1="471.209" y1="2.20021e-08" x2="471.209" y2="465.806" stroke="#1B1A1A"/>
<line y1="155.422" x2="1215.02" y2="155.422" stroke="#1B1A1A"/>
<line y1="232.895" x2="1215.02" y2="232.895" stroke="#1B1A1A"/>
<line y1="310.365" x2="1215.02" y2="310.365" stroke="#1B1A1A"/>
<line y1="387.836" x2="1216" y2="387.836" stroke="#1B1A1A"/>
<line y1="427.061" x2="1216" y2="427.061" stroke="#1B1A1A"/>
</svg>
