<svg width="730" height="521" viewBox="0 0 730 521" fill="none" xmlns="http://www.w3.org/2000/svg">
<line y1="51.541" x2="728.699" y2="51.541" stroke="#1B1A1A"/>
<line x1="53.5" y1="2.15175e-08" x2="53.5" y2="520" stroke="#1B1A1A"/>
<line x1="156.5" y1="1.98565e-08" x2="156.5" y2="520" stroke="#1B1A1A"/>
<line x1="260.5" y1="2.16617e-08" x2="260.5" y2="520" stroke="#1B1A1A"/>
<line x1="365.5" y1="2.01686e-08" x2="365.5" y2="520" stroke="#1B1A1A"/>
<line x1="469.5" y1="1.98565e-08" x2="469.5" y2="520" stroke="#1B1A1A"/>
<line x1="572.5" y1="1.98565e-08" x2="572.5" y2="520" stroke="#1B1A1A"/>
<line x1="676.5" x2="676.5" y2="520" stroke="#1B1A1A"/>
<line y1="155.623" x2="728.699" y2="155.623" stroke="#1B1A1A"/>
<line y1="259.703" x2="730" y2="259.703" stroke="#1B1A1A"/>
<line y1="363.783" x2="730" y2="363.783" stroke="#1B1A1A"/>
<line y1="467.865" x2="730" y2="467.865" stroke="#1B1A1A"/>
<rect x="0.5" y="0.5" width="729" height="519" stroke="#1B1A1A"/>
<line y1="103.582" x2="728.699" y2="103.582" stroke="#1B1A1A"/>
<line x1="104.5" y1="2.14538e-08" x2="104.5" y2="520" stroke="#1B1A1A"/>
<line x1="209.5" y1="2.145e-08" x2="209.5" y2="520" stroke="#1B1A1A"/>
<line x1="312.5" y1="2.145e-08" x2="312.5" y2="520" stroke="#1B1A1A"/>
<line x1="416.5" y1="2.145e-08" x2="416.5" y2="520" stroke="#1B1A1A"/>
<line x1="520.5" y1="2.145e-08" x2="520.5" y2="520" stroke="#1B1A1A"/>
<line x1="625.5" y1="2.145e-08" x2="625.5" y2="520" stroke="#1B1A1A"/>
<line y1="207.662" x2="728.699" y2="207.662" stroke="#1B1A1A"/>
<line y1="311.744" x2="728.699" y2="311.744" stroke="#1B1A1A"/>
<line y1="415.826" x2="728.699" y2="415.826" stroke="#1B1A1A"/>
<line y1="519.904" x2="730" y2="519.904" stroke="#1B1A1A"/>
<line y1="103.582" x2="728.699" y2="103.582" stroke="#1B1A1A"/>
<line y1="207.662" x2="728.699" y2="207.662" stroke="#1B1A1A"/>
<line y1="311.744" x2="728.699" y2="311.744" stroke="#1B1A1A"/>
<line y1="415.826" x2="728.699" y2="415.826" stroke="#1B1A1A"/>
</svg>
